<?xml version="1.0" encoding="UTF-8" standalone="no"?>
<!-- Created with Inkscape (http://www.inkscape.org/) -->

<svg
   width="100mm"
   height="130mm"
   viewBox="0 0 100 130"
   version="1.1"
   id="svg5"
   xmlns="http://www.w3.org/2000/svg"
   xmlns:svg="http://www.w3.org/2000/svg">
  <defs
     id="defs2">
    <style
       id="style824">.cls-1{fill:#e6e8ea;}.cls-2{fill:#f29d22;}</style>
  </defs>
  <g
     id="layer1">
    <g
       id="g856"
       transform="matrix(0.26458333,0,0,0.26458333,-8.2460648,25.453568)">
      <path
         class="cls-2"
         d="m 214.72616,-96.202463 c 62.30366,1.350361 111.08696,21.932517 148.27062,65.30312 37.45698,43.689395 52.42134,94.652262 43.71152,152.022553 -7.64927,50.38422 -30.36663,94.31927 -58.06891,136.18754 -30.76936,46.50389 -69.1217,86.47703 -109.59339,124.59657 -0.18949,0.17846 -0.47761,0.24978 -0.68414,0.41499 -5.73992,4.59305 -11.34806,12.59247 -17.24793,12.80964 -5.62266,0.20696 -11.89246,-7.32309 -17.27315,-12.11952 -12.85467,-11.45898 -25.81111,-22.86768 -37.87268,-35.12401 A 522.12111,518.10009 0 0 1 127.87034,305.91575 C 90.474694,258.51514 56.332743,209.11795 39.796022,150.08036 24.058341,93.89537 29.039871,40.103435 61.413713,-9.4487407 98.450853,-66.138711 152.44152,-93.300191 214.72616,-96.202463 Z m 6.45498,305.610793 C 287.47507,208.99509 339.35925,156.2174 338.53871,89.120645 337.80085,28.777375 286.94583,-25.643225 219.3996,-25.490406 154.01402,-25.342528 101.37329,28.246042 101.82964,94.185598 c 0.43989,63.562862 54.3705,115.627782 119.3515,115.222732 z"
         id="path830"
         style="stroke-width:1.64217" />
      <path
         class="cls-1"
         d="M 221.18114,209.40833 C 156.20014,209.81338 102.26953,157.74846 101.82956,94.185598 101.37321,28.246042 154.01393,-25.342462 219.39951,-25.490406 286.94575,-25.643192 337.80076,28.777375 338.53863,89.120726 339.35925,156.2174 287.47507,208.99509 221.18114,209.40833 Z m -53.47568,-87.00336 c 0,13.32511 -0.0796,26.65093 0.0266,39.97516 0.0773,9.70394 5.92277,15.95234 15.59943,16.07801 18.90592,0.24565 37.81833,0.2294 56.72561,0.0583 9.36287,-0.0847 15.35008,-5.92006 16.12562,-15.02133 0.4323,-5.07316 -1.11309,-12.46746 1.61535,-14.64778 3.41672,-2.7304 10.30241,-1.2695 15.69645,-1.46117 8.68938,-0.30878 12.59766,-3.87201 12.71526,-12.43738 0.16057,-11.69094 0.10122,-23.38745 -0.0528,-35.079057 -0.10303,-7.825399 -3.63877,-11.410941 -11.43429,-11.868826 a 48.715476,48.340304 0 0 0 -9.85239,0.03894 c -7.85267,1.14171 -9.925,-2.829069 -8.45328,-9.375611 a 17.921219,17.783202 0 0 1 4.29588,-7.222563 c 6.44453,-7.302197 8.42213,-16.647086 3.66211,-23.985679 A 233.97437,232.17246 0 0 0 248.92905,27.230519 c -1.27675,-1.561759 -3.7982,-2.055568 -5.52246,-3.338091 -2.80457,-2.086108 -6.29689,-3.90551 -7.97873,-6.729051 -10.35603,-17.38625112 -32.94947,-17.71544546 -43.61756,-0.465916 -1.02348,1.654902 -2.90908,4.00083 -4.36542,3.980546 -10.14463,-0.141336 -15.54481,5.006898 -18.51989,14.160607 -0.69823,2.148304 -3.80344,3.610686 -5.94427,5.198897 -11.9859,8.892207 -11.75006,24.896181 0.12991,34.016292 a 12.63631,12.538993 0 0 1 4.40542,8.383791 c 0.46299,13.30893 0.20399,26.642666 0.18932,39.967506 z"
         id="path832"
         style="stroke-width:1.64217" />
      <path
         class="cls-2"
         d="m 167.7128,122.40497 c 0.007,-13.32485 0.26634,-26.658577 -0.19672,-39.967556 a 12.63631,12.538993 0 0 0 -4.40542,-8.383791 c -11.88003,-9.12011 -12.11587,-25.124086 -0.1299,-34.016292 2.14082,-1.58821 5.24603,-3.050593 5.94427,-5.198896 2.97507,-9.153711 8.37525,-14.302059 18.51988,-14.160608 1.45634,0.02028 3.34194,-2.325643 4.36543,-3.980546 10.66808,-17.24952941 33.26144,-16.92033505 43.61756,0.465917 1.68184,2.82354 5.17416,4.642942 7.97873,6.72905 1.72424,1.282491 4.24571,1.776331 5.52246,3.338091 a 233.97437,232.17246 0 0 1 15.44596,20.225398 c 4.76001,7.338593 2.78241,16.683483 -3.66212,23.985678 a 17.921219,17.783202 0 0 0 -4.29588,7.222565 c -1.47172,6.54659 0.60061,10.517322 8.45328,9.37561 a 48.715476,48.340304 0 0 1 9.85239,-0.03893 c 7.79552,0.457885 11.33123,4.043428 11.43429,11.868822 0.15414,11.691638 0.21334,23.388118 0.0528,35.079058 -0.11754,8.56535 -4.02587,12.12861 -12.71526,12.43738 -5.39398,0.19166 -12.27974,-1.26923 -15.69645,1.46117 -2.72845,2.18032 -1.18305,9.57462 -1.61536,14.64779 -0.77553,9.10119 -6.76275,14.93655 -16.12561,15.02132 -18.90729,0.17124 -37.8197,0.18748 -56.72562,-0.0583 -9.67666,-0.12561 -15.5221,-6.37407 -15.59943,-16.078 -0.10617,-13.32421 -0.0265,-26.65001 -0.0191,-39.97512 z m 68.25959,-38.86895 c 0,24.9061 0.0933,47.96535 -0.23503,71.01871 -0.0195,1.36212 -3.39951,3.78129 -5.2693,3.83386 -12.04714,0.33929 -24.11793,-0.11729 -36.16255,0.26463 -5.67337,0.17994 -6.83456,-1.99257 -6.77681,-7.12362 q 0.37194,-33.03442 -0.032,-66.074015 c -0.0259,-2.231272 -2.26217,-4.437221 -3.47273,-6.654932 -1.16622,2.222324 -3.32402,4.434735 -3.34662,6.668443 -0.25047,24.741924 -0.0307,49.488754 -0.28909,74.230464 -0.0556,5.32815 1.51059,7.03475 6.94426,6.94162 16.4358,-0.28198 32.88683,-0.28168 49.31894,0.12464 5.71567,0.14134 6.85707,-2.00125 6.81433,-7.09689 -0.20772,-24.74296 -0.0897,-49.48848 -0.12908,-74.233057 -0.003,-1.878833 0.38651,-4.774382 -0.62331,-5.478181 -9.99161,-6.963858 -0.0847,-7.501063 3.21362,-9.286147 7.31139,-3.956892 13.03755,-12.276377 9.66466,-18.501477 -4.47367,-8.256623 -11.10333,-15.410482 -17.15563,-22.754948 -2.55552,-3.101124 -6.53684,-5.081263 -8.9416,-8.262102 -7.33991,-9.708255 -21.57474,-11.4174186 -30.25374,-2.853393 -4.12701,4.072316 -6.91254,9.278966 -14.13866,9.149571 -2.12224,-0.03795 -4.45698,3.586328 -6.43841,5.761704 -2.7886,3.061568 -5.01998,6.679649 -8.05125,9.455912 -8.50827,7.792553 -8.01924,20.714136 1.91865,26.403927 a 33.401928,33.14469 0 0 0 14.74946,4.050576 c 7.72828,0.335443 15.44958,-0.833259 18.03106,9.236009 0.38837,1.514958 2.56927,2.694554 4.09795,3.785146 8.70044,6.207073 17.01005,3.662475 26.56274,-2.606547 z m 39.00378,33.68511 q 0,-3.67317 -2.5e-4,-7.34634 c -0.008,-11.481773 -0.0166,-11.146426 -11.40944,-11.409762 -5.86979,-0.135775 -7.70653,1.864402 -7.41474,7.455662 a 164.46333,163.19675 0 0 1 -0.0364,21.20626 c -0.56635,7.13083 1.83678,9.41051 9.17844,9.33331 7.20678,-0.0759 10.91159,-1.57068 9.7645,-9.45509 a 70.442415,69.899916 0 0 1 -0.0821,-9.78409 z M 201.3581,87.062804 c -2.6775,3.342981 -5.49124,5.340672 -5.33286,7.070465 0.1695,1.852332 2.90114,4.120458 4.99511,4.851353 0.90471,0.315802 4.14949,-2.682457 4.28191,-4.336804 0.15332,-1.91464 -1.94963,-4.007062 -3.94416,-7.585064 z m 20.64468,17.762956 c -2.50971,-1.66446 -3.81228,-3.1548 -5.20635,-3.24451 -1.02118,-0.0656 -3.20319,1.97131 -3.03937,2.60796 a 5.4442717,5.4023437 0 0 0 2.96538,3.64029 c 1.12212,0.25311 2.68876,-1.43358 5.28034,-3.00379 z"
         id="path834"
         style="stroke-width:1.64217" />
      <path
         class="cls-1"
         d="m 235.97239,83.535971 c -9.5527,6.269023 -17.8623,8.813622 -26.56269,2.606433 -1.52868,-1.090592 -3.70958,-2.270188 -4.09796,-3.785146 -2.58147,-10.069267 -10.30277,-8.900549 -18.03106,-9.236009 a 33.401928,33.14469 0 0 1 -14.74954,-4.050624 c -9.93788,-5.689727 -10.42692,-18.611308 -1.91865,-26.403927 3.03128,-2.776264 5.26265,-6.394344 8.05125,-9.455913 1.98143,-2.175375 4.31617,-5.799704 6.43842,-5.761704 7.22611,0.129396 10.01164,-5.077255 14.13866,-9.14957 8.67899,-8.5640268 22.91382,-6.854863 30.25374,2.853393 2.4048,3.180839 6.38612,5.161043 8.9416,8.262102 6.05229,7.344466 12.68196,14.498358 17.15562,22.754946 3.37289,6.225101 -2.35327,14.544587 -9.66466,18.501478 -3.29835,1.785083 -13.20523,2.32229 -3.21362,9.286147 1.00982,0.7038 0.62029,3.599349 0.62331,5.478182 0.0394,24.744571 -0.0786,49.490101 0.12908,74.233051 0.0427,5.09561 -1.09866,7.23822 -6.81433,7.0969 -16.43212,-0.40637 -32.88313,-0.40667 -49.31893,-0.12464 -5.43367,0.093 -6.99991,-1.61348 -6.94427,-6.94163 0.25851,-24.74178 0.0386,-49.48852 0.28909,-74.230459 0.0226,-2.233708 2.1804,-4.446184 3.34662,-6.668442 1.21056,2.21771 3.44692,4.423708 3.47273,6.654932 q 0.38185,33.033939 0.032,66.074019 c -0.0577,5.13104 1.10344,7.30347 6.7768,7.12362 12.04456,-0.38194 24.11541,0.0746 36.16255,-0.26463 1.86979,-0.0525 5.24986,-2.47175 5.2693,-3.83386 0.32839,-23.05325 0.23506,-46.1125 0.23506,-71.0186 z"
         id="path836"
         style="stroke-width:1.64217" />
      <path
         class="cls-1"
         d="m 274.97876,117.22108 a 70.047066,69.507612 0 0 0 0.0795,9.78407 c 1.14702,7.88438 -2.55772,9.37916 -9.7645,9.4551 -7.34166,0.0772 -9.7448,-2.20249 -9.17845,-9.33332 a 164.46333,163.19675 0 0 0 0.0364,-21.20626 c -0.29179,-5.59126 1.54494,-7.591368 7.41473,-7.455659 11.39281,0.263362 11.40104,-0.07198 11.40945,11.409769 q 0.003,3.67315 0.003,7.3463 z"
         id="path838"
         style="stroke-width:1.64217" />
      <path
         class="cls-1"
         d="m 201.3581,87.062754 c 1.99453,3.578002 4.09739,5.670424 3.94416,7.585015 -0.13237,1.654348 -3.3772,4.652605 -4.28191,4.336803 -2.09397,-0.730894 -4.82561,-2.999021 -4.99511,-4.851353 -0.15843,-1.729791 2.65536,-3.727483 5.33286,-7.070465 z"
         id="path840"
         style="stroke-width:1.64217" />
      <path
         class="cls-1"
         d="m 222.00278,104.82571 c -2.59158,1.57021 -4.15822,3.25693 -5.28034,3.00374 a 5.4442717,5.4023437 0 0 1 -2.96538,-3.64029 c -0.16387,-0.63665 2.01819,-2.67364 3.03937,-2.60796 1.39407,0.0896 2.69664,1.58012 5.20635,3.24451 z"
         id="path842"
         style="stroke-width:1.64217" />
    </g>
  </g>
</svg>
