<svg id="Calque_1" data-name="Calque 1" xmlns="http://www.w3.org/2000/svg" viewBox="0 0 787.37 504.64"><path d="M978.18,258.33c23,0,46.07-.1,69.11.1,4,0,5.5-1.21,6.5-5,5.6-21.33,11.44-42.6,17.31-63.86,5.52-20,26.72-28.74,43.54-18a27.91,27.91,0,0,1,12.65,29c-3.28,17-8.29,33.51-12.35,50.29-4.48,18.49-9.21,36.93-13.88,55.37a30.42,30.42,0,0,0-.78,6.64c-.69,25.65,1.68,51.13,4,76.62,2,21.82,3.47,43.7,5.17,65.55q5.38,69.13,10.78,138.27c1.57,20.1,3.31,40.17,4.81,60.27.73,9.85-1.69,12.21-11.72,12.23-9.12,0-18.24,0-27.35,0-7.73-.05-10.15-2.5-10.76-10.31-2-25.51-4.12-51-6-76.54-.28-3.79-1.7-4.71-5.29-4.71q-71.76.17-143.51,0c-3.67,0-4.85,1-5.13,4.78-1.89,25.36-4.07,50.7-6.14,76.05-.7,8.59-2.87,10.71-11.32,10.74-9.28,0-18.56,0-27.84,0-8.68-.05-11.43-3.12-10.73-11.89q6-75.59,12.08-151.16c2.73-34.6,5.31-69.21,8-103.81,1.43-18.18,3.28-36.33,4.41-54.52.65-10.52.24-21.11.34-31.67,0-2.39-.31-4.82.57-7.13a3.76,3.76,0,0,0-.67-3.6c-10.47-16.2-.72-44.12,26.94-43.59h67.2Zm14,266.16c21.59,0,43.18,0,64.78,0,8.5,0,8.13,1.54,7.38-8q-4.23-54.27-8.65-108.54c-1.44-18-2.9-36-4.23-54-.22-2.87-1-4.26-4.23-4.25q-54.93.13-109.87,0c-3.12,0-4.08,1.1-4.31,4.13-1.89,25-4,50-6,75.07q-3.57,45.19-7.07,90.4c-.4,5.2-.45,5.22,5,5.22Zm3.5-224.79c28.32,0,56.63-.06,84.94.08,3.68,0,5.5-1,6.15-4.71.69-3.92,2-7.74,3-11.6,5.11-19.82,9.53-39.8,15-59.54,2.37-8.63,4.44-17.35,6.34-26.1a11.94,11.94,0,0,0-22.36-7.79,26.67,26.67,0,0,0-2,5.39q-9.48,34.68-18.9,69.38c-2.46,9-4,10.21-13.39,10.21H913.35a52.63,52.63,0,0,0-5.76.15A12.17,12.17,0,0,0,899,294.39c3.12,4.4,7.56,5.36,12.63,5.35C939.66,299.66,967.65,299.7,995.64,299.7Zm80.76,50H1074c-6.13,0-6.2,0-5.71,6.28,1.63,20.73,3.34,41.45,5,62.17,2.38,30.45,4.65,60.91,7.06,91.36q5.09,64.1,10.28,128.17c.94,11.81.84,11.82,12.61,11.66,4.76-.07,4.87-.08,4.49-4.86-1.45-18-3-36-4.45-54q-4.7-59.55-9.3-119.11c-3-37.79-6.07-75.57-9-113.36C1084.16,348.33,1085.09,349.88,1076.4,349.71ZM884.71,649.35c8.33,0,8.27,0,8.92-8.4q2.61-33.47,5.31-66.93Q906.72,476.49,914.5,379c.67-8.45,1.23-16.9,2-25.34.28-3-.72-4.1-3.68-3.93a65.25,65.25,0,0,1-8.62,0c-3.39-.26-4.4,1.24-4.54,4.43-.28,6.39-.89,12.76-1.4,19.13q-5.53,69.33-11.07,138.64Q882.08,576.42,877.06,641C876.4,649.35,876.34,649.35,884.71,649.35ZM992.12,333h63.35c7.84,0,15.68,0,23.52,0,4.67,0,4.68-.06,4.72-4.87,0-2.72-.11-5.44,0-8.16s-1-3.82-3.63-3.62c-1.43.11-2.88,0-4.32,0H911.65c-11,0-11,0-11,11.13,0,5.5,0,5.52,5.52,5.52Q949.17,333,992.12,333Zm0,224.59h68.14c7.34,0,7.33,0,6.58-7.54-.11-1.12-.19-2.23-.27-3.35-.36-5.62-.36-5.64-6-5.64q-65.5,0-131,0c-3.61,0-8.19-1.62-10.61.83s-1.21,7-1.49,10.65c-.39,5-.32,5,4.59,5Z" transform="translate(-582.87 -166.89)"/><path d="M1241.38,671.53a177.62,177.62,0,0,1-83-22.29c-19.86-10.92-25.86-28.62-20.22-52.66,3.53-15,17.64-21.65,32.25-16.45a50.72,50.72,0,0,1,10.57,5.6c15.29,10,31.62,17.55,49.81,20.27,13.88,2.06,27.76,2,41.25-2.61,21.61-7.39,32.77-26.49,28.85-49-1.73-9.93-7.78-17-15.13-23.2-9.38-7.88-20.32-13.26-31.26-18.56-17-8.22-34.25-15.85-50.54-25.41-17.17-10.07-32.25-22.45-43.16-39.41a94,94,0,0,1-14.84-47c-1.21-23.36,3.26-45.18,17-64.56,15.28-21.62,36.82-33.73,62.07-39.55,36.76-8.46,71.55-2.41,105.11,14.35,25,12.49,24.85,38.74,18.25,56.08-4.48,11.76-16.9,16.45-29.14,12.22a52.43,52.43,0,0,1-10.61-5.52c-12.7-8-26-14.52-41.09-16.41-11.33-1.42-22.66-1.45-33.53,3-19.64,8.05-27,32.31-15.22,50.12,6.18,9.35,15,15.62,24.5,21.09,13.31,7.67,27.52,13.55,41.29,20.33,16.78,8.26,33.66,16.38,48.2,28.46,19.83,16.45,33.15,36.78,36.43,62.71,7.52,59.4-24.47,105.62-79,121.9C1275,669.56,1259.48,671.38,1241.38,671.53Zm2.46-24.73a144.68,144.68,0,0,0,29.07-3c13.59-2.83,26.42-7.64,37.86-15.64,23.44-16.39,34.13-39.43,34.82-67.57q.83-33.55-23.62-56.61a124.21,124.21,0,0,0-26.21-18.43c-14.77-8-30-15-45.17-22.23-14-6.65-27.83-13.77-39.55-24.2-12.66-11.26-20.62-24.88-22.2-42.16-2.45-26.73,11-49.48,35.81-59.59a79.16,79.16,0,0,1,25.69-5.4c22.05-1.24,42.43,4.38,61.55,15.07,4,2.25,8,4.7,12,7,1.12.65,2.17,1.39,2.84-.72,2.39-7.67-.44-15.94-7.5-19.68-32-17-65.4-21.5-100-9.41-44.88,15.67-63.21,68.16-38.34,108.8,8.58,14,21,24,34.86,32.25,15.42,9.16,31.83,16.37,47.94,24.17,14.41,7,28.51,14.37,40.79,24.93,29.4,25.25,26.07,65.93,9,88.62-13.94,18.56-33.57,26.39-56,28.38-31.53,2.81-60.06-6.15-86.59-22.61q-2.87-1.77-5.64-3.65c-2.35-1.6-3.66-1.93-4.17,1.77-1.42,10.21.79,15.71,9.76,20.75C1193.51,640.42,1218,646.37,1243.84,646.8Z" transform="translate(-582.87 -166.89)"/><path d="M690.29,497.54q0-69.59,0-139.16c0-5.4,0-5.41-5.44-5.41q-37.9,0-75.81,0c-14.77,0-25.85-10.79-26-25.61-.07-6.67-.81-13.4,1.45-20C588.4,296,597,289.61,609,289.61c76,0,152,.15,227.93-.15,13.66,0,24.68,7.65,27.43,22.23a48.34,48.34,0,0,1-.63,22.34C860.35,346,851,353,838.58,353q-37.44,0-74.86,0c-7,0-6.23-.69-6.23,6.07,0,91.49-.14,183,.13,274.47,0,14.3-7.59,24.56-23.59,26.8-8.64,1.21-17.24,1.21-25.69-1.13-11.92-3.31-18-11.49-18.05-23.94Q690.28,566.4,690.29,497.54Zm24.79-11.19V626c0,10.54,0,10.54,10.74,10.21,6.91-.21,6.92-.21,6.92-6.93v-285c0-11.79,4.33-16.07,16.27-16.07h84.45c1.28,0,2.56-.05,3.84,0,1.73.07,2.59-.64,2.89-2.41a22.67,22.67,0,0,0,.35-6.2c-.54-5.09-.62-5.19-5.87-5.19H613c-5.15,0-5.38.25-5.61,5.31,0,1,0,1.92,0,2.88.11,5.53.17,5.61,5.65,5.61h86.37c11.23,0,15.7,4.47,15.7,15.67Z" transform="translate(-582.87 -166.89)"/></svg>